<svg width="32" height="34" viewBox="0 0 32 34" fill="none" xmlns="http://www.w3.org/2000/svg">
<path d="M1.66663 16.7649C1.66663 8.85933 8.09383 2.43213 15.9994 2.43213C23.9062 2.43213 30.3334 8.85933 30.3334 16.7649C30.3334 24.6717 23.9062 31.0989 15.9994 31.0989C8.09383 31.0989 1.66663 24.6717 1.66663 16.7649Z" fill="white" fill-opacity="0.6"/>
<path d="M15 21.4321V13.4321C15 12.8855 15.4533 12.4321 16 12.4321C16.5467 12.4321 17 12.8855 17 13.4321V21.4321C17 21.9788 16.5467 22.4321 16 22.4321C15.4533 22.4321 15 21.9788 15 21.4321Z" fill="white" fill-opacity="0.6"/>
<path d="M19.2926 16.8047L15.9992 13.5113L12.7059 16.8047C12.3192 17.1913 11.6792 17.1913 11.2926 16.8047C10.9059 16.418 10.9059 15.778 11.2926 15.3913L15.2926 11.3913C15.6792 11.0047 16.3192 11.0047 16.7059 11.3913L20.7059 15.3913C21.0926 15.778 21.0926 16.418 20.7059 16.8047C20.5059 17.0047 20.2526 17.098 19.9992 17.098C19.7459 17.098 19.4926 17.0047 19.2926 16.8047Z" fill="white" fill-opacity="0.6"/>
</svg>