<svg width="230" height="52" viewBox="0 0 230 52" fill="none" xmlns="http://www.w3.org/2000/svg">
<g filter="url(#filter0_b_20_2485)">
<path d="M56.1832 43.0986H53.6903L60.9006 23.4623H63.3551L70.5653 43.0986H68.0724L62.2045 26.5688H62.0511L56.1832 43.0986ZM57.1037 35.4282H67.152V37.5376H57.1037V35.4282ZM79.8754 28.3714V30.289H71.9364V28.3714H79.8754ZM74.3143 43.0986V26.3387C74.3143 25.4949 74.5124 24.7918 74.9087 24.2293C75.305 23.6668 75.8196 23.2449 76.4524 22.9637C77.0852 22.6824 77.7532 22.5418 78.4563 22.5418C79.0124 22.5418 79.4663 22.5866 79.8178 22.676C80.1694 22.7655 80.4315 22.8486 80.604 22.9253L79.9521 24.8813C79.837 24.843 79.6772 24.795 79.4727 24.7375C79.2745 24.68 79.0124 24.6512 78.6864 24.6512C77.9386 24.6512 77.3984 24.8398 77.0661 25.2169C76.7401 25.594 76.5771 26.1469 76.5771 26.8756V43.0986H74.3143ZM89.6048 28.3714V30.289H81.6659V28.3714H89.6048ZM84.0438 43.0986V26.3387C84.0438 25.4949 84.2419 24.7918 84.6382 24.2293C85.0345 23.6668 85.5491 23.2449 86.1819 22.9637C86.8147 22.6824 87.4827 22.5418 88.1858 22.5418C88.7419 22.5418 89.1958 22.5866 89.5473 22.676C89.8989 22.7655 90.161 22.8486 90.3335 22.9253L89.6816 24.8813C89.5665 24.843 89.4067 24.795 89.2021 24.7375C89.004 24.68 88.7419 24.6512 88.4159 24.6512C87.6681 24.6512 87.1279 24.8398 86.7955 25.2169C86.4695 25.594 86.3066 26.1469 86.3066 26.8756V43.0986H84.0438ZM96.688 43.4438C95.7548 43.4438 94.9078 43.268 94.1472 42.9165C93.3865 42.5585 92.7825 42.0439 92.335 41.3728C91.8876 40.6952 91.6639 39.877 91.6639 38.9182C91.6639 38.0745 91.8301 37.3905 92.1625 36.8664C92.4949 36.3358 92.9391 35.9204 93.4952 35.6199C94.0513 35.3195 94.665 35.0958 95.3361 34.9488C96.0137 34.7954 96.6944 34.6739 97.3784 34.5844C98.2733 34.4694 98.9988 34.3831 99.5549 34.3255C100.117 34.2616 100.526 34.1562 100.782 34.0091C101.044 33.8621 101.175 33.6064 101.175 33.2421V33.1654C101.175 32.2194 100.916 31.4843 100.399 30.9601C99.8873 30.436 99.1106 30.1739 98.0687 30.1739C96.9885 30.1739 96.1415 30.4104 95.5279 30.8834C94.9142 31.3564 94.4828 31.8614 94.2335 32.3983L92.0858 31.6313C92.4693 30.7364 92.9806 30.0397 93.6199 29.5411C94.2654 29.0361 94.9686 28.6846 95.7292 28.4864C96.4963 28.2819 97.2505 28.1796 97.992 28.1796C98.465 28.1796 99.0083 28.2371 99.622 28.3522C100.242 28.4608 100.84 28.6878 101.415 29.0329C101.997 29.3781 102.479 29.8991 102.863 30.5958C103.246 31.2925 103.438 32.2258 103.438 33.3955V43.0986H101.175V41.1043H101.06C100.907 41.4239 100.651 41.7659 100.293 42.1302C99.9352 42.4946 99.459 42.8046 98.8645 43.0603C98.2701 43.316 97.5446 43.4438 96.688 43.4438ZM97.0332 41.4111C97.9281 41.4111 98.6824 41.2354 99.296 40.8838C99.916 40.5322 100.383 40.0784 100.696 39.5223C101.015 38.9662 101.175 38.3813 101.175 37.7677V35.6966C101.079 35.8117 100.868 35.9172 100.542 36.013C100.223 36.1025 99.8521 36.1824 99.4302 36.2528C99.0147 36.3167 98.6088 36.3742 98.2125 36.4253C97.8226 36.4701 97.5062 36.5084 97.2633 36.5404C96.6752 36.6171 96.1255 36.7417 95.6142 36.9143C95.1092 37.0805 94.7001 37.333 94.3869 37.6718C94.0801 38.0042 93.9267 38.458 93.9267 39.0333C93.9267 39.8195 94.2175 40.414 94.7992 40.8167C95.3873 41.213 96.1319 41.4111 97.0332 41.4111ZM109.831 23.4623V43.0986H107.568V23.4623H109.831ZM119.536 43.4055C118.309 43.4055 117.226 43.0954 116.286 42.4754C115.346 41.849 114.611 40.9669 114.081 39.8291C113.55 38.6849 113.285 37.333 113.285 35.7733C113.285 34.2265 113.55 32.8841 114.081 31.7464C114.611 30.6086 115.35 29.7297 116.296 29.1096C117.242 28.4896 118.335 28.1796 119.575 28.1796C120.534 28.1796 121.291 28.3394 121.847 28.659C122.41 28.9722 122.838 29.3302 123.132 29.7329C123.432 30.1292 123.666 30.4552 123.832 30.7108H124.024V23.4623H126.286V43.0986H124.1V40.8358H123.832C123.666 41.1043 123.429 41.4431 123.122 41.8522C122.816 42.2549 122.378 42.616 121.809 42.9356C121.24 43.2488 120.482 43.4055 119.536 43.4055ZM119.843 41.3728C120.751 41.3728 121.518 41.1363 122.144 40.6633C122.771 40.1839 123.247 39.5223 123.573 38.6785C123.899 37.8284 124.062 36.8472 124.062 35.735C124.062 34.6356 123.902 33.6736 123.583 32.849C123.263 32.018 122.79 31.3724 122.164 30.9122C121.537 30.4456 120.764 30.2123 119.843 30.2123C118.884 30.2123 118.085 30.4584 117.446 30.9505C116.813 31.4363 116.337 32.0979 116.018 32.9353C115.704 33.7662 115.548 34.6995 115.548 35.735C115.548 36.7833 115.708 37.7357 116.027 38.5922C116.353 39.4424 116.833 40.1199 117.465 40.6249C118.105 41.1235 118.897 41.3728 119.843 41.3728ZM141.177 31.6697L139.144 32.2449C139.016 31.9062 138.828 31.577 138.578 31.2574C138.335 30.9314 138.003 30.6629 137.581 30.452C137.159 30.241 136.619 30.1356 135.961 30.1356C135.059 30.1356 134.308 30.3433 133.708 30.7588C133.113 31.1679 132.816 31.6888 132.816 32.3216C132.816 32.8841 133.02 33.3284 133.43 33.6544C133.839 33.9804 134.478 34.252 135.347 34.4694L137.533 35.0063C138.85 35.3259 139.831 35.8149 140.477 36.4733C141.122 37.1253 141.445 37.9658 141.445 38.9949C141.445 39.8387 141.202 40.593 140.716 41.2577C140.237 41.9225 139.566 42.4466 138.703 42.8302C137.84 43.2137 136.836 43.4055 135.692 43.4055C134.19 43.4055 132.947 43.0795 131.963 42.4275C130.978 41.7755 130.355 40.8231 130.093 39.5702L132.241 39.0333C132.445 39.8259 132.832 40.4204 133.401 40.8167C133.976 41.213 134.727 41.4111 135.654 41.4111C136.709 41.4111 137.546 41.1874 138.166 40.74C138.792 40.2861 139.106 39.7428 139.106 39.11C139.106 38.5986 138.927 38.1704 138.569 37.8252C138.211 37.4736 137.661 37.2116 136.92 37.039L134.465 36.4637C133.116 36.1441 132.126 35.6487 131.493 34.9775C130.866 34.3 130.553 33.453 130.553 32.4367C130.553 31.6057 130.786 30.8706 131.253 30.2314C131.726 29.5922 132.368 29.0905 133.18 28.7261C133.998 28.3618 134.925 28.1796 135.961 28.1796C137.418 28.1796 138.562 28.4992 139.393 29.1384C140.231 29.7776 140.825 30.6214 141.177 31.6697ZM150.796 48.9282C149.703 48.9282 148.763 48.7876 147.977 48.5063C147.191 48.2314 146.536 47.8671 146.011 47.4133C145.494 46.9658 145.081 46.4864 144.775 45.9751L146.577 44.7094C146.782 44.9779 147.041 45.2847 147.354 45.6299C147.667 45.9814 148.095 46.2851 148.639 46.5407C149.188 46.8028 149.907 46.9339 150.796 46.9339C151.985 46.9339 152.966 46.6462 153.739 46.0709C154.513 45.4956 154.9 44.5944 154.9 43.3671V40.3756H154.708C154.542 40.6441 154.305 40.9765 153.998 41.3728C153.698 41.7627 153.263 42.1111 152.694 42.4179C152.132 42.7183 151.371 42.8685 150.412 42.8685C149.223 42.8685 148.156 42.5873 147.21 42.0248C146.27 41.4623 145.526 40.6441 144.976 39.5702C144.433 38.4964 144.161 37.1924 144.161 35.6583C144.161 34.1498 144.426 32.8362 144.957 31.7176C145.487 30.5926 146.226 29.7233 147.172 29.1096C148.118 28.4896 149.211 28.1796 150.451 28.1796C151.41 28.1796 152.17 28.3394 152.733 28.659C153.302 28.9722 153.736 29.3302 154.037 29.7329C154.343 30.1292 154.58 30.4552 154.746 30.7108H154.976V28.3714H157.162V43.5205C157.162 44.7861 156.875 45.8153 156.299 46.6079C155.731 47.4069 154.964 47.9917 153.998 48.3625C153.04 48.7396 151.972 48.9282 150.796 48.9282ZM150.719 40.8358C151.627 40.8358 152.394 40.6281 153.02 40.2126C153.647 39.7971 154.123 39.1995 154.449 38.4197C154.775 37.6398 154.938 36.7066 154.938 35.6199C154.938 34.5589 154.778 33.6224 154.459 32.8106C154.139 31.9988 153.666 31.3628 153.04 30.9026C152.413 30.4424 151.64 30.2123 150.719 30.2123C149.76 30.2123 148.961 30.4552 148.322 30.941C147.689 31.4268 147.213 32.0787 146.894 32.8969C146.58 33.7151 146.424 34.6228 146.424 35.6199C146.424 36.6427 146.584 37.5471 146.903 38.3334C147.229 39.1132 147.709 39.7268 148.341 40.1743C148.981 40.6153 149.773 40.8358 150.719 40.8358ZM170.586 37.0773V28.3714H172.848V43.0986H170.586V40.6057H170.432C170.087 41.3536 169.55 41.9896 168.821 42.5138C168.093 43.0315 167.172 43.2904 166.06 43.2904C165.14 43.2904 164.321 43.089 163.606 42.6863C162.89 42.2773 162.327 41.6636 161.918 40.8454C161.509 40.0209 161.304 38.9822 161.304 37.7293V28.3714H163.567V37.5759C163.567 38.6498 163.868 39.5063 164.468 40.1455C165.076 40.7847 165.849 41.1043 166.789 41.1043C167.351 41.1043 167.923 40.9605 168.505 40.6729C169.093 40.3852 169.585 39.9442 169.982 39.3497C170.384 38.7552 170.586 37.9978 170.586 37.0773ZM176.993 43.0986V28.3714H179.256V43.0986H176.993ZM178.143 25.9168C177.702 25.9168 177.322 25.7666 177.002 25.4662C176.689 25.1657 176.533 24.8046 176.533 24.3827C176.533 23.9608 176.689 23.5997 177.002 23.2993C177.322 22.9988 177.702 22.8486 178.143 22.8486C178.585 22.8486 178.962 22.9988 179.275 23.2993C179.594 23.5997 179.754 23.9608 179.754 24.3827C179.754 24.8046 179.594 25.1657 179.275 25.4662C178.962 25.7666 178.585 25.9168 178.143 25.9168ZM188.961 43.4055C187.734 43.4055 186.65 43.0954 185.711 42.4754C184.771 41.849 184.036 40.9669 183.506 39.8291C182.975 38.6849 182.71 37.333 182.71 35.7733C182.71 34.2265 182.975 32.8841 183.506 31.7464C184.036 30.6086 184.774 29.7297 185.72 29.1096C186.666 28.4896 187.759 28.1796 189 28.1796C189.958 28.1796 190.716 28.3394 191.272 28.659C191.834 28.9722 192.263 29.3302 192.557 29.7329C192.857 30.1292 193.09 30.4552 193.257 30.7108H193.448V23.4623H195.711V43.0986H193.525V40.8358H193.257C193.09 41.1043 192.854 41.4431 192.547 41.8522C192.24 42.2549 191.802 42.616 191.234 42.9356C190.665 43.2488 189.907 43.4055 188.961 43.4055ZM189.268 41.3728C190.176 41.3728 190.943 41.1363 191.569 40.6633C192.196 40.1839 192.672 39.5223 192.998 38.6785C193.324 37.8284 193.487 36.8472 193.487 35.735C193.487 34.6356 193.327 33.6736 193.007 32.849C192.688 32.018 192.215 31.3724 191.588 30.9122C190.962 30.4456 190.188 30.2123 189.268 30.2123C188.309 30.2123 187.51 30.4584 186.871 30.9505C186.238 31.4363 185.762 32.0979 185.442 32.9353C185.129 33.7662 184.973 34.6995 184.973 35.735C184.973 36.7833 185.132 37.7357 185.452 38.5922C185.778 39.4424 186.257 40.1199 186.89 40.6249C187.529 41.1235 188.322 41.3728 189.268 41.3728ZM206.344 43.4055C204.925 43.4055 203.701 43.0922 202.672 42.4658C201.649 41.833 200.86 40.9509 200.304 39.8195C199.754 38.6817 199.479 37.3586 199.479 35.8501C199.479 34.3415 199.754 33.012 200.304 31.8614C200.86 30.7045 201.633 29.8032 202.624 29.1576C203.621 28.5056 204.785 28.1796 206.114 28.1796C206.881 28.1796 207.639 28.3074 208.387 28.5631C209.134 28.8188 209.815 29.2343 210.429 29.8096C211.043 30.3785 211.532 31.1327 211.896 32.0724C212.26 33.012 212.442 34.1689 212.442 35.5432V36.502H201.09V34.5461H210.141C210.141 33.7151 209.975 32.9736 209.643 32.3216C209.317 31.6697 208.85 31.1551 208.243 30.778C207.642 30.4008 206.932 30.2123 206.114 30.2123C205.213 30.2123 204.433 30.436 203.775 30.8834C203.123 31.3245 202.621 31.8998 202.269 32.6093C201.918 33.3188 201.742 34.0795 201.742 34.8912V36.1952C201.742 37.3074 201.934 38.2503 202.317 39.0237C202.707 39.7907 203.247 40.3756 203.938 40.7783C204.628 41.1746 205.43 41.3728 206.344 41.3728C206.939 41.3728 207.476 41.2897 207.955 41.1235C208.441 40.9509 208.86 40.6952 209.211 40.3564C209.563 40.0113 209.834 39.583 210.026 39.0716L212.212 39.6853C211.982 40.4268 211.595 41.0787 211.052 41.6412C210.509 42.1974 209.838 42.632 209.039 42.9452C208.24 43.252 207.342 43.4055 206.344 43.4055ZM218.147 34.2393V43.0986H215.884V28.3714H218.071V30.6725H218.262C218.608 29.9246 219.132 29.3238 219.835 28.8699C220.538 28.4097 221.446 28.1796 222.558 28.1796C223.555 28.1796 224.427 28.3841 225.175 28.7932C225.923 29.1959 226.505 29.8096 226.92 30.6341C227.336 31.4523 227.544 32.4878 227.544 33.7407V43.0986H225.281V33.8941C225.281 32.7371 224.98 31.8358 224.38 31.1903C223.779 30.5383 222.954 30.2123 221.906 30.2123C221.184 30.2123 220.538 30.3689 219.969 30.6821C219.407 30.9953 218.962 31.4523 218.636 32.0532C218.31 32.654 218.147 33.3827 218.147 34.2393Z" fill="white"/>
</g>
<path fill-rule="evenodd" clip-rule="evenodd" d="M21.4962 51.6706H13.111C12.4718 51.6706 11.9448 51.1897 11.8723 50.5695L11.8684 50.5699L9.08346 27.5529L8.38381 21.7725C8.3028 21.0864 8.79331 20.4646 9.47929 20.3833C9.52875 20.3776 9.57789 20.375 9.62625 20.375V20.3735H21.4962H33.3668C34.0583 20.3735 34.6186 20.9342 34.6186 21.6257C34.6186 21.6959 34.6128 21.765 34.602 21.832L32.2308 41.4246L31.1243 50.5699C31.0452 51.2393 30.4519 51.7225 29.7857 51.6706H21.4962Z" fill="white"/>
<path fill-rule="evenodd" clip-rule="evenodd" d="M26.6875 27.8363L27.7699 17.7259H16.4178H5.08781L5.66232 22.4726C5.75009 23.2157 5.21845 23.8896 4.47547 23.9774C3.73201 24.065 3.05812 23.5337 2.97035 22.7902L2.22046 16.5928C2.20837 16.5203 2.20209 16.4452 2.20209 16.3695C2.20209 15.6203 2.80957 15.0129 3.55883 15.0129H16.4178H29.2768V15.0156C29.3242 15.0159 29.3716 15.0181 29.4193 15.0233C30.1633 15.1024 30.7017 15.7691 30.623 16.5124L29.3752 28.1643L30.3028 28.2776C30.7743 28.3353 31.1099 28.764 31.0521 29.2354C31.0276 29.4375 30.9343 29.6147 30.7987 29.7469L27.9593 33.0875C27.6534 33.448 27.1133 33.4928 26.7525 33.1871C26.6564 33.1053 26.5823 33.0068 26.5317 32.8996L24.5507 28.9149C24.3408 28.4913 24.5141 27.9776 24.9377 27.7678C25.0935 27.6906 25.2612 27.6653 25.4215 27.6849L25.422 27.6814L26.3383 27.7932L26.5123 27.8143L26.6875 27.8363ZM18.6785 46.2147H24.3001L25.3546 37.4997C25.4422 36.7564 26.1161 36.2248 26.8594 36.3129C27.6024 36.4005 28.134 37.0744 28.0464 37.8178L26.8476 47.725L26.8437 47.724C26.7652 48.3957 26.1942 48.9173 25.5019 48.9173H18.6785V48.9271V49.8503H18.6748C18.6748 50.0122 18.6293 50.1756 18.5338 50.3204C18.2743 50.7158 17.7436 50.8255 17.3481 50.5658L13.6334 48.1159C13.5332 48.0527 13.4441 47.968 13.3749 47.8617C13.1151 47.4672 13.225 46.9363 13.6198 46.6765L17.2804 44.2626C17.4274 44.1443 17.6147 44.0734 17.8185 44.0734C18.2932 44.0734 18.6785 44.4583 18.6785 44.9335V46.0539V46.2147ZM4.08953 32.5317L4.1481 32.5248L5.98781 47.725C6.06914 48.4146 6.65558 48.9219 7.33355 48.9214L9.73097 48.9223C10.4802 48.9223 11.0874 48.3153 11.0874 47.5659C11.0874 46.8168 10.4802 46.2093 9.73097 46.2093H8.53486L6.84101 32.2138L7.88294 32.0937C8.35476 32.0387 8.69297 31.6124 8.63864 31.1407C8.61509 30.938 8.5234 30.7603 8.38868 30.6276L5.5711 27.2684C5.26759 26.9058 4.72778 26.8573 4.36524 27.1606C4.26821 27.2418 4.19379 27.3401 4.14229 27.4466L2.13504 31.4185C1.92213 31.8406 2.09249 32.3552 2.51486 32.5678C2.66967 32.646 2.83752 32.6727 2.99783 32.6537L2.9983 32.6575L3.91572 32.5516L4.08953 32.5317Z" fill="white"/>
<path fill-rule="evenodd" clip-rule="evenodd" d="M15.5219 8.38632C13.4724 8.77021 11.2755 8.15849 9.70491 6.55917C8.13448 4.95969 7.56358 2.75163 7.98485 0.709531C10.0343 0.326108 12.2311 0.937355 13.802 2.53668C15.3721 4.13663 15.9433 6.34438 15.5219 8.38632Z" fill="white"/>
<path fill-rule="evenodd" clip-rule="evenodd" d="M17.7553 8.167C18.912 8.38351 20.1517 8.03856 21.0377 7.1359C21.9239 6.23324 22.2461 4.98751 22.0084 3.83504C20.8518 3.61868 19.6119 3.96363 18.7259 4.86613C17.84 5.76895 17.5177 7.01468 17.7553 8.167Z" fill="white"/>
<path d="M16.4177 10.1328H31.4784C32.2278 10.1328 32.835 10.7404 32.835 11.4895C32.835 12.2385 32.2278 12.8463 31.4784 12.8463H16.4177H1.3569C0.607798 12.8463 -0.000152588 12.2386 -0.000152588 11.4895C-0.000152588 10.7404 0.607798 10.1328 1.3569 10.1328H16.4177Z" fill="white"/>
<defs>
<filter id="filter0_b_20_2485" x="43.6903" y="12.5417" width="193.853" height="46.3865" filterUnits="userSpaceOnUse" color-interpolation-filters="sRGB">
<feFlood flood-opacity="0" result="BackgroundImageFix"/>
<feGaussianBlur in="BackgroundImageFix" stdDeviation="5"/>
<feComposite in2="SourceAlpha" operator="in" result="effect1_backgroundBlur_20_2485"/>
<feBlend mode="normal" in="SourceGraphic" in2="effect1_backgroundBlur_20_2485" result="shape"/>
</filter>
</defs>
</svg>
