<svg width="28" height="41" viewBox="0 0 28 41" fill="none" xmlns="http://www.w3.org/2000/svg">
<path fill-rule="evenodd" clip-rule="evenodd" d="M17.2556 40.997H10.5246C10.0115 40.997 9.58849 40.6109 9.53026 40.1131L9.52711 40.1134L7.29156 21.637L6.72994 16.9969C6.66491 16.4461 7.05865 15.947 7.60931 15.8817C7.64901 15.8772 7.68846 15.875 7.72728 15.875V15.8739H17.2556H26.7845C27.3396 15.8739 27.7894 16.324 27.7894 16.879C27.7894 16.9354 27.7848 16.9908 27.7761 17.0447L25.8726 32.7722L24.9844 40.1134C24.9209 40.6507 24.4446 41.0387 23.9098 40.997H17.2556Z" fill="#CBDB3D"/>
<path fill-rule="evenodd" clip-rule="evenodd" d="M21.4229 21.8645L22.2918 13.7486H13.1791H4.08415L4.54532 17.5589C4.61578 18.1554 4.18901 18.6964 3.5926 18.7668C2.9958 18.8372 2.45485 18.4107 2.38439 17.8139L1.78244 12.839C1.77273 12.7808 1.76769 12.7205 1.76769 12.6598C1.76769 12.0583 2.25533 11.5708 2.85679 11.5708H13.1791H23.5014V11.573C23.5394 11.5732 23.5775 11.575 23.6158 11.5791C24.213 11.6427 24.6452 12.1778 24.582 12.7745L23.5804 22.1278L24.325 22.2188C24.7035 22.265 24.9729 22.6092 24.9265 22.9876C24.9068 23.1498 24.8319 23.2921 24.723 23.3982L22.4438 26.0798C22.1982 26.3692 21.7647 26.4051 21.475 26.1597C21.3979 26.0941 21.3384 26.0151 21.2978 25.929L19.7076 22.7304C19.5391 22.3903 19.6782 21.9779 20.0183 21.8095C20.1433 21.7475 20.2779 21.7272 20.4066 21.743L20.407 21.7402L21.1425 21.8299L21.2822 21.8468L21.4229 21.8645ZM14.9938 36.6174H19.5064L20.3529 29.6216C20.4232 29.025 20.9642 28.5982 21.5609 28.6689C22.1573 28.7393 22.584 29.2802 22.5137 29.877L21.5514 37.8298L21.5483 37.829C21.4852 38.3682 21.0268 38.7869 20.4711 38.7869H14.9938V38.7947V39.5358H14.9909C14.9909 39.6657 14.9543 39.797 14.8777 39.9132C14.6693 40.2305 14.2433 40.3186 13.9258 40.1102L10.9439 38.1436C10.8635 38.0928 10.792 38.0249 10.7364 37.9395C10.5279 37.6228 10.6161 37.1967 10.9331 36.9881L13.8715 35.0504C13.9895 34.9555 14.1399 34.8985 14.3035 34.8985C14.6845 34.8985 14.9938 35.2075 14.9938 35.5889V36.4883V36.6174ZM3.2828 25.6337L3.32981 25.6281L4.8066 37.8298C4.87189 38.3833 5.34264 38.7906 5.88687 38.7902L7.81135 38.7909C8.41281 38.7909 8.90019 38.3037 8.90019 37.7021C8.90019 37.1007 8.41281 36.6131 7.81135 36.6131H6.85119L5.49149 25.3784L6.32788 25.282C6.70662 25.2379 6.97811 24.8957 6.9345 24.5171C6.9156 24.3544 6.84199 24.2117 6.73385 24.1052L4.47209 21.4086C4.22846 21.1176 3.79514 21.0786 3.50412 21.3221C3.42623 21.3873 3.36648 21.4662 3.32514 21.5517L1.71387 24.74C1.54296 25.0788 1.67971 25.492 2.01876 25.6627C2.14303 25.7254 2.27777 25.7468 2.40645 25.7316L2.40683 25.7346L3.14327 25.6497L3.2828 25.6337Z" fill="#0F783C"/>
<path fill-rule="evenodd" clip-rule="evenodd" d="M12.4599 6.2515C10.8147 6.55967 9.05119 6.06862 7.79043 4.78479C6.52979 3.50084 6.07152 1.72837 6.40968 0.0891128C8.05485 -0.218673 9.81825 0.271994 11.0793 1.55582C12.3397 2.84015 12.7982 4.61237 12.4599 6.2515Z" fill="#CBDB3D"/>
<path fill-rule="evenodd" clip-rule="evenodd" d="M14.2527 6.07542C15.1812 6.24923 16.1764 5.97233 16.8876 5.24773C17.599 4.52314 17.8576 3.52315 17.6668 2.59803C16.7384 2.42435 15.7431 2.70125 15.0318 3.42572C14.3207 4.15044 14.062 5.15043 14.2527 6.07542Z" fill="#CBDB3D"/>
<path d="M13.1789 7.65342H25.2687C25.8702 7.65342 26.3576 8.14118 26.3576 8.74252C26.3576 9.34371 25.8702 9.83161 25.2687 9.83161H13.1789H1.08923C0.487898 9.83161 -0.00012207 9.34384 -0.00012207 8.74252C-0.00012207 8.14118 0.487898 7.65342 1.08923 7.65342H13.1789Z" fill="#0F783C"/>
</svg>
